<svg width="32" height="32" viewBox="0 0 32 32" fill="none" xmlns="http://www.w3.org/2000/svg">
<g clip-path="url(#clip0)">
<g opacity="0.2" filter="url(#filter0_f)">
<circle cx="16" cy="16" r="15" fill="#FF00E6"/>
</g>
<path d="M24 4H8C5.79086 4 4 5.86548 4 8.16667V24.8333C4 27.1345 5.79086 29 8 29H24C26.2091 29 28 27.1345 28 24.8333V8.16667L24 4Z" fill="black"/>
<path d="M24 4H8C5.79086 4 4 5.64162 4 7.66667V22.3333C4 24.3584 5.79086 26 8 26H24C26.2091 26 28 24.3584 28 22.3333V7.66667L24 4Z" fill="#5A73D6"/>
<g filter="url(#filter1_d)">
<path fill-rule="evenodd" clip-rule="evenodd" d="M23 4H9V10C9 11.1046 9.89543 12 11 12H21C22.1046 12 23 11.1046 23 10V4ZM21 5H17V10H21V5Z" fill="white"/>
</g>
<path d="M8 18C8 16.8954 8.89543 16 10 16H22C23.1046 16 24 16.8954 24 18V26H8V18Z" fill="white"/>
<rect x="10" y="18" width="12" height="2" fill="#A3A3A3"/>
<rect x="10" y="21" width="12" height="2" fill="#A3A3A3"/>
<rect x="8" y="26" width="16" height="2" fill="black"/>
</g>
<defs>
<filter id="filter0_f" x="-3" y="-3" width="38" height="38" filterUnits="userSpaceOnUse" color-interpolation-filters="sRGB">
<feFlood flood-opacity="0" result="BackgroundImageFix"/>
<feBlend mode="normal" in="SourceGraphic" in2="BackgroundImageFix" result="shape"/>
<feGaussianBlur stdDeviation="2" result="effect1_foregroundBlur"/>
</filter>
<filter id="filter1_d" x="9" y="4" width="14" height="10" filterUnits="userSpaceOnUse" color-interpolation-filters="sRGB">
<feFlood flood-opacity="0" result="BackgroundImageFix"/>
<feColorMatrix in="SourceAlpha" type="matrix" values="0 0 0 0 0 0 0 0 0 0 0 0 0 0 0 0 0 0 127 0"/>
<feOffset dy="2"/>
<feColorMatrix type="matrix" values="0 0 0 0 0 0 0 0 0 0 0 0 0 0 0 0 0 0 1 0"/>
<feBlend mode="normal" in2="BackgroundImageFix" result="effect1_dropShadow"/>
<feBlend mode="normal" in="SourceGraphic" in2="effect1_dropShadow" result="shape"/>
</filter>
<clipPath id="clip0">
<rect width="32" height="32" fill="white"/>
</clipPath>
</defs>
</svg>
